Coordinates
version=1
nRows=29
nColumns=24
inDegrees=yes

Units are S.I. units (second, meters, Newtons, ...)
Angles are in degrees.

endheader
time	pelvis_tilt	pelvis_list	pelvis_rotation	pelvis_tx	pelvis_ty	pelvis_tz	hip_flexion_r	hip_adduction_r	hip_rotation_r	knee_angle_r	ankle_angle_r	subtalar_angle_r	mtp_angle_r	hip_flexion_l	hip_adduction_l	hip_rotation_l	knee_angle_l	ankle_angle_l	subtalar_angle_l	mtp_angle_l	lumbar_extension	lumbar_bending	lumbar_rotation
      1.45383333	      2.45142002	      4.28365376	     -0.96303986	      0.21732636	      1.03698870	      0.29094772	     12.33234851	     -6.88316540	     -8.97530846	    -68.68170466	     -6.50347753	     -7.02500210	      2.42936188	      4.95156960	      8.64003890	      5.58754184	     -9.58380089	      1.70028932	    -16.54089606	     -5.38033068	     -6.22092508	     -7.11380270	      3.57891495
      1.45800000	      2.42454117	      4.12847253	     -1.00806602	      0.22202984	      1.03765952	      0.29068976	     13.03043088	     -6.73960811	     -8.97247780	    -68.64525852	     -5.98894067	     -6.91530944	      2.45010663	      4.54050982	      8.48919021	      5.62691613	     -9.29348780	      1.74475802	    -16.60628166	     -5.37650617	     -6.27982226	     -6.88247162	      3.55966015
      1.46216667	      2.42100816	      3.98129283	     -1.05045913	      0.22673467	      1.03834965	      0.29044026	     13.68794206	     -6.60304252	     -8.97610272	    -68.55167975	     -5.49233665	     -6.81967763	      2.47203402	      4.09653340	      8.34660956	      5.67492348	     -8.98576088	      1.79127697	    -16.66578377	     -5.37431340	     -6.35510766	     -6.67569828	      3.53348730
      1.46633333	      2.43035423	      3.84415319	     -1.08579379	      0.23144172	      1.03901902	      0.29017128	     14.31671425	     -6.48095800	     -8.98698669	    -68.40809163	     -5.00253301	     -6.67550546	      2.50185138	      3.62747931	      8.21859666	      5.76621355	     -8.65525189	      1.81755487	    -16.77587710	     -5.37405026	     -6.43622696	     -6.49524982	      3.48295351
      1.47050000	      2.41252461	      3.69416815	     -1.11425824	      0.23613917	      1.03963427	      0.28991652	     14.95774498	     -6.33352467	     -9.00716425	    -68.19492420	     -4.59232355	     -6.71824697	      2.51870143	      3.20680004	      8.07113626	      5.79313060	     -8.36307049	      1.88931444	    -16.79268862	     -5.37376418	     -6.48094679	     -6.29202238	      3.45462382
      1.47466667	      2.40195013	      3.53975827	     -1.11981242	      0.24079285	      1.04021373	      0.28958129	     15.57721080	     -6.19558955	     -9.05106900	    -67.94318385	     -4.12444218	     -6.60098700	      2.54661406	      2.78528952	      7.92668810	      5.88001319	     -8.08402461	      1.93084069	    -16.86987696	     -5.37677792	     -6.58237820	     -6.04954139	      3.40122940
      1.47883333	      2.38849866	      3.38974351	     -1.12573700	      0.24546069	      1.04077532	      0.28927038	     16.18232913	     -6.05504018	     -9.09478836	    -67.62862473	     -3.70028745	     -6.57111943	      2.57311488	      2.36139044	      7.78431647	      5.96127072	     -7.79201803	      1.97829450	    -16.93656935	     -5.38115889	     -6.65460877	     -5.83490778	      3.33767974
      1.48300000	      2.41796579	      3.24950612	     -1.12673253	      0.25013644	      1.04137222	      0.28894044	     16.71880518	     -5.93162181	     -9.14889442	    -67.25294302	     -3.28046200	     -6.50954374	      2.61234601	      1.88032838	      7.65429918	      6.07137536	     -7.47678063	      2.00796514	    -17.04892944	     -5.39323796	     -6.76345191	     -5.63779878	      3.23703367
      1.48716667	      2.39628511	      3.10686479	     -1.12390057	      0.25479421	      1.04186095	      0.28862268	     17.30042806	     -5.79708350	     -9.20463786	    -66.82757902	     -2.89599373	     -6.57205958	      2.63218592	      1.48163501	      7.51624231	      6.11045975	     -7.21489416	      2.07850255	    -17.06495436	     -5.39748543	     -6.81332009	     -5.43602746	      3.19735364
      1.49133333	      2.37924342	      2.95802666	     -1.11013687	      0.25944633	      1.04233101	      0.28827547	     17.85522043	     -5.65808093	     -9.27001726	    -66.34256617	     -2.50906386	     -6.59470715	      2.65323620	      1.07856236	      7.37276103	      6.17534345	     -6.95444327	      2.15397162	    -17.08912599	     -5.40264952	     -6.87315693	     -5.21370631	      3.13949707
      1.49550000	      2.38794516	      2.80760861	     -1.08550410	      0.26407037	      1.04280860	      0.28791186	     18.36252629	     -5.52133466	     -9.34870385	    -65.80031549	     -2.12391055	     -6.60276778	      2.67675981	      0.65151987	      7.22750059	      6.25408767	     -6.69686898	      2.22626021	    -17.12331906	     -5.40989838	     -6.97238779	     -4.98555696	      3.05975758
      1.49966667	      2.41648142	      2.67151453	     -1.05718844	      0.26868150	      1.04328641	      0.28753433	     18.83120362	     -5.40122403	     -9.42196517	    -65.20503097	     -1.75248056	     -6.56038557	      2.72537389	      0.19040259	      7.10074563	      6.40473597	     -6.41053768	      2.25234991	    -17.23738611	     -5.43738716	     -7.12947537	     -4.78514751	      2.87457615
      1.50383333	      2.39336673	      2.52553276	     -1.02939655	      0.27331398	      1.04366707	      0.28717892	     19.33596390	     -5.26034886	     -9.49641124	    -64.54855401	     -1.39454075	     -6.63717203	      2.74585436	     -0.18873371	      6.95622904	      6.45224068	     -6.17777737	      2.33002215	    -17.24178146	     -5.44612229	     -7.17498123	     -4.56562476	      2.82934945
      1.50800000	      2.37251617	      2.37764275	     -0.98465254	      0.27791102	      1.04400918	      0.28679611	     19.81792545	     -5.12109256	     -9.58210683	    -63.83543906	     -1.06471204	     -6.66176704	      2.77362151	     -0.56422168	      6.80987216	      6.54450634	     -5.95393658	      2.41348316	    -17.26713703	     -5.46168219	     -7.25950958	     -4.34830620	      2.72792735
      1.51216667	      2.38944233	      2.23644187	     -0.94572301	      0.28252278	      1.04439118	      0.28642779	     20.23539150	     -4.98628594	     -9.66298875	    -63.06009415	     -0.73977557	     -6.70873190	      2.80106456	     -0.98605564	      6.66936588	      6.62451820	     -5.71831514	      2.49220224	    -17.28489996	     -5.47941250	     -7.37254656	     -4.13796651	      2.61894703
      1.51633333	      2.37690258	      2.10389149	     -0.90257604	      0.28714432	      1.04469163	      0.28605491	     20.66638564	     -4.85889544	     -9.73975189	    -62.23379044	     -0.43132691	     -6.76644633	      2.82572266	     -1.37043012	      6.53680339	      6.70328626	     -5.49351108	      2.57651124	    -17.29734714	     -5.49683209	     -7.44599563	     -3.93344915	      2.51398755
      1.52050000	      2.35953489	      1.96903285	     -0.85606745	      0.29176802	      1.04495425	      0.28569128	     21.07985948	     -4.72410548	     -9.81564649	    -61.34705272	     -0.14378243	     -6.83126159	      2.84759758	     -1.74539914	      6.39962436	      6.78232411	     -5.27669846	      2.66548063	    -17.30385797	     -5.51434067	     -7.51415878	     -3.72801853	      2.40606871
      1.52466667	      2.39478872	      1.83892555	     -0.80747030	      0.29639361	      1.04528147	      0.28533546	     21.40802597	     -4.59415337	     -9.89503446	    -60.38956957	      0.08870898	     -6.91583566	      2.88052620	     -2.18948362	      6.26598439	      6.88966681	     -5.03397061	      2.75254808	    -17.32033643	     -5.55168519	     -7.64623669	     -3.52960369	      2.22394195
      1.52883333	      2.38195509	      1.71596275	     -0.75518332	      0.30102418	      1.04548828	      0.28497706	     21.77132999	     -4.46876828	     -9.96882546	    -59.38822593	      0.33065955	     -6.99892554	      2.90662829	     -2.56542550	      6.13893475	      6.97023593	     -4.82416517	      2.84475592	    -17.32578934	     -5.58472263	     -7.71411123	     -3.33968138	      2.10953005
      1.53300000	      2.35209516	      1.58835892	     -0.69769985	      0.30566003	      1.04564417	      0.28463485	     22.12681977	     -4.33116920	    -10.03846658	    -58.32312359	      0.56588687	     -7.08783204	      2.92317036	     -2.91277163	      6.00438650	      7.04196478	     -4.63596246	      2.93999570	    -17.31837867	     -5.60928210	     -7.77055310	     -3.14204203	      2.01581724
      1.53716667	      2.33344426	      1.46244359	     -0.63755400	      0.31031417	      1.04579772	      0.28429555	     22.44251694	     -4.19380809	    -10.11040809	    -57.19293521	      0.75663068	     -7.19471961	      2.93497147	     -3.27855380	      5.86964965	      7.12184118	     -4.43681796	      3.04331685	    -17.30610528	     -5.63410600	     -7.83406821	     -2.94530540	      1.90278146
      1.54133333	      2.31200717	      1.34841962	     -0.57720612	      0.31497806	      1.04591232	      0.28398085	     22.73809311	     -4.06295719	    -10.17294810	    -56.00514605	      0.91161678	     -7.32478071	      2.94287842	     -3.64083253	      5.74599418	      7.20448092	     -4.23830669	      3.14673409	    -17.29311119	     -5.66257510	     -7.89141088	     -2.76997463	      1.77027643
      1.54550000	      2.32255121	      1.24079069	     -0.51801366	      0.31965866	      1.04604480	      0.28368300	     22.97179114	     -3.93495122	    -10.23241614	    -54.75262554	      0.99788886	     -7.50609078	      2.94848202	     -4.04964486	      5.62681835	      7.30099784	     -4.01676327	      3.24785200	    -17.28496220	     -5.71380145	     -7.98534565	     -2.60497036	      1.58298857
      1.54966667	      2.29425321	      1.13687669	     -0.45355984	      0.32435701	      1.04607541	      0.28339311	     23.22412521	     -3.80799048	    -10.29028922	    -53.45022038	      1.09786373	     -7.66048117	      2.94761153	     -4.40537520	      5.51093508	      7.38492177	     -3.82083659	      3.35292205	    -17.27657008	     -5.76605011	     -8.02887217	     -2.44483198	      1.44298797
      1.55383333	      2.24362160	      1.02969038	     -0.38090869	      0.32906726	      1.04605708	      0.28310288	     23.47018620	     -3.67404515	    -10.34716625	    -52.08367994	      1.19493633	     -7.79812645	      2.94038479	     -4.72685064	      5.39010182	      7.46405283	     -3.64802679	      3.45835958	    -17.26032148	     -5.80173415	     -8.04558569	     -2.27122835	      1.33887424
      1.55800000	      2.19931783	      0.92522082	     -0.31151796	      0.33381734	      1.04601924	      0.28284641	     23.68202431	     -3.53917355	    -10.40710783	    -50.65769560	      1.24657850	     -7.97431125	      2.92621267	     -5.07096352	      5.26808915	      7.54290731	     -3.44397829	      3.56927536	    -17.23832444	     -5.83559667	     -8.07756696	     -2.10732428	      1.21771018
      1.56216667	      2.21494814	      0.83047705	     -0.24269702	      0.33856894	      1.04604982	      0.28262022	     23.79546886	     -3.40300771	    -10.45128270	    -49.15149634	      1.18065826	     -8.25147432	      2.89294791	     -5.48506390	      5.15474120	      7.63281925	     -3.23241360	      3.67648446	    -17.21950463	     -5.90041395	     -8.16049536	     -1.96913246	      1.01854721
      1.56633333	      2.16002099	      0.73178621	     -0.16182198	      0.34336505	      1.04593385	      0.28237502	     23.95949511	     -3.27230104	    -10.52185666	    -47.60324518	      1.16115200	     -8.44010177	      2.86014213	     -5.81324270	      5.03654313	      7.70462068	     -3.04337618	      3.78982534	    -17.20897002	     -5.95246733	     -8.16681293	     -1.82101101	      0.88684358
      1.57050000	      2.10198983	      0.64708847	     -0.08509561	      0.34816786	      1.04577102	      0.28215650	     24.10300221	     -3.14302883	    -10.56007289	    -46.00372458	      1.13748725	     -8.62845801	      2.82612761	     -6.13771573	      4.93280707	      7.79077953	     -2.85930175	      3.89790553	    -17.17938957	     -5.99401179	     -8.16346970	     -1.66599108	      0.76545220
